<?xml version="1.0" encoding="UTF-8"?><svg id="Capa_2" xmlns="http://www.w3.org/2000/svg" viewBox="0 0 21.86 22.28"><defs><style>.cls-1{fill:#e1e1e1;stroke-width:0px;}</style></defs><g id="Capa_2-2"><path class="cls-1" d="m10.23,0C10.85,0,11.48,0,12.1,0c.29.04.57.07.86.12,2.09.34,3.93,1.22,5.51,2.63.13.12.13.19,0,.31-.95.94-1.9,1.89-2.84,2.84-.14.14-.22.12-.36,0-1.58-1.38-3.43-1.8-5.45-1.39-3.18.65-5.5,3.68-5.28,7.01.13,1.98.97,3.61,2.5,4.86,1.82,1.49,3.91,1.82,6.14,1.22,2.02-.54,3.38-1.81,3.94-3.87.09-.32.07-.33-.26-.33-1.82,0-3.64,0-5.45,0-.2,0-.28-.05-.28-.27,0-1.29,0-2.58,0-3.87,0-.19.06-.25.25-.25,3.35,0,6.69,0,10.04,0,.17,0,.24.07.26.23.29,1.74.24,3.46-.18,5.17-.6,2.47-1.88,4.5-3.98,5.98-1.58,1.11-3.36,1.67-5.27,1.83-1.46.12-2.89.01-4.3-.42C2.48,20.15-.81,14.79.17,9.15.9,4.96,4.09,1.47,8.2.37,8.87.19,9.55.08,10.23,0Z"/></g></svg>