<?xml version="1.0" encoding="UTF-8"?><svg id="Capa_2" xmlns="http://www.w3.org/2000/svg" viewBox="0 0 21.23 24.13"><defs><style>.cls-1{fill:#e1e1e1;stroke-width:0px;}</style></defs><g id="Capa_2-2"><path class="cls-1" d="m.49,24.13C.14,23.95,0,23.67,0,23.27c.02-4.31,3.2-8.15,7.44-8.98.53-.1,1.07-.17,1.61-.16,1.05,0,2.1,0,3.15,0,2.18.03,4.1.78,5.75,2.19,1.71,1.47,2.76,3.32,3.15,5.55.08.46.11.92.13,1.38.01.41-.12.7-.49.88H.49Zm10.13-1.43c2.07,0,4.14,0,6.21,0,.89,0,1.79,0,2.68,0,.16,0,.22-.03.2-.22-.09-.64-.22-1.27-.46-1.87-1.1-2.67-3.04-4.36-5.89-4.9-1.44-.28-2.91-.13-4.37-.12-.42,0-.84.05-1.26.13-3.23.61-5.8,3.37-6.2,6.66q-.04.31.29.32c2.93,0,5.87,0,8.8,0Z"/><path class="cls-1" d="m10.6,12.75c-3.53,0-6.36-2.85-6.36-6.38C4.24,2.84,7.09.02,10.63,0c3.5-.02,6.4,2.91,6.37,6.41-.03,3.51-2.86,6.34-6.39,6.34Zm0-11.3c-2.75.05-4.91,2.19-4.91,4.93,0,2.75,2.17,4.91,4.91,4.91,2.74,0,4.92-2.16,4.92-4.93,0-2.74-2.18-4.87-4.92-4.91Z"/></g></svg>