<?xml version="1.0" encoding="UTF-8"?><svg id="Capa_2" xmlns="http://www.w3.org/2000/svg" viewBox="0 0 28.48 28.48"><defs><style>.cls-1{fill:#e1e1e1;stroke-width:0px;}</style></defs><g id="Capa_2-2"><path class="cls-1" d="m18.5,5.77c-.32-.6.08-.9.42-1.24,1.39-1.39,2.78-2.78,4.17-4.17.05-.05.1-.1.15-.15.16-.16.35-.26.59-.17.22.09.29.29.31.5.05.48.09.96.14,1.44.06.61.13,1.23.18,1.84.01.17.1.19.24.21,1.05.1,2.11.21,3.16.31.1.01.21.03.3.06.29.1.4.41.24.68-.07.11-.17.21-.26.3-1.43,1.44-2.87,2.86-4.3,4.31-.31.32-.62.56-1.12.31,1.76,3.15,2.2,6.45,1.14,9.87-1.06,3.42-3.26,5.92-6.49,7.47-4.92,2.35-10.89,1.04-14.43-3.12-3.59-4.22-3.94-10.24-.81-14.79,1.82-2.65,4.31-4.36,7.46-5.06,3.12-.69,6.09-.19,8.92,1.41Zm-6.45-.77c-.27.02-.78.04-1.28.11-2.98.39-5.42,1.76-7.31,4.08-2.02,2.49-2.82,5.36-2.43,8.54.32,2.58,1.42,4.79,3.28,6.59,2.6,2.51,5.72,3.56,9.32,3.14,2.58-.31,4.79-1.42,6.59-3.27,2.31-2.38,3.39-5.25,3.22-8.58-.09-1.77-.59-3.42-1.48-4.95-.58-1.01-.59-.99-1.71-1.28-.29-.07-.47-.02-.68.19-2.26,2.27-4.52,4.53-6.79,6.8-.09.09-.17.18-.27.25-.21.17-.48.16-.64-.02-.18-.2-.17-.41-.01-.62.07-.1.17-.18.25-.27,2.26-2.26,4.51-4.52,6.77-6.76.24-.23.32-.45.21-.76-.08-.23-.13-.48-.18-.72-.04-.2-.14-.35-.32-.47-1.91-1.31-4.02-1.96-6.55-1.99Zm11.24-3.44c-.06.03-.1.03-.12.05-1.22,1.22-2.45,2.44-3.67,3.66-.1.1-.11.21-.08.34.16.65.33,1.3.48,1.95.06.23.13.24.29.08,1.07-1.07,2.14-2.14,3.21-3.21.09-.09.17-.18.15-.32-.09-.84-.17-1.67-.26-2.55Zm3.62,3.67s-.03-.04-.05-.04c-.82-.09-1.64-.17-2.45-.25-.14-.01-.24.04-.33.13-1.08,1.08-2.15,2.16-3.23,3.23-.19.18-.11.24.09.29.6.15,1.2.29,1.8.45.25.07.42.03.6-.16,1.13-1.14,2.27-2.27,3.4-3.41.07-.07.17-.12.18-.24Z"/><path class="cls-1" d="m12.31,24.76c-4.3,0-7.83-3.03-8.5-7.19-.72-4.5,2.4-8.88,6.89-9.65,2.28-.39,4.4.05,6.32,1.35.09.06.19.13.26.21.15.18.17.38.02.56-.14.18-.33.24-.55.14-.1-.05-.2-.11-.29-.18-1.26-.86-2.67-1.31-4.18-1.31-4.06.01-7,2.94-7.53,6.4-.64,4.19,2.2,7.88,6.07,8.59,4.22.78,8.19-2.03,8.86-6.22.32-2-.11-3.84-1.24-5.52-.02-.03-.03-.05-.05-.08-.18-.29-.15-.55.08-.71.23-.16.48-.09.69.19.45.61.79,1.28,1.05,1.99,1.83,5.05-1.4,10.5-6.7,11.32-.43.07-.86.1-1.19.08Z"/><path class="cls-1" d="m9.9,16.27c0-1.23.99-2.28,2.15-2.31.37,0,.57.12.6.39.04.29-.13.46-.51.53-.76.13-1.17.5-1.3,1.16-.14.7.35,1.42,1.06,1.57.73.16,1.48-.3,1.63-1.01.03-.12.04-.24.06-.37.04-.27.2-.42.48-.42.26,0,.42.2.43.5.03,1.06-.87,2.09-1.96,2.24-1.42.19-2.65-.87-2.65-2.29Z"/></g></svg>