<?xml version="1.0" encoding="UTF-8"?><svg id="Capa_2" xmlns="http://www.w3.org/2000/svg" viewBox="0 0 25.96 25.95"><defs><style>.cls-1{fill:#e1e1e1;stroke-width:0px;}</style></defs><g id="Capa_2-2"><path class="cls-1" d="m24.59,25.95c-.25-.09-.45-.25-.64-.44-2.32-2.33-4.65-4.65-6.98-6.99-.18-.18-.29-.2-.5-.04-1.3,1.01-2.78,1.66-4.4,1.93-2.84.48-5.45-.11-7.79-1.8-2.26-1.64-3.65-3.86-4.13-6.61-.36-2.07-.09-4.08.79-6C1.9,3.95,3.38,2.37,5.36,1.27,6.56.6,7.86.19,9.24.05c2.02-.2,3.93.15,5.74,1.08,1.65.85,2.98,2.06,3.98,3.62.89,1.39,1.43,2.9,1.58,4.54.18,1.97-.17,3.85-1.06,5.61-.28.56-.6,1.1-1,1.58-.15.18-.13.29.03.46,2.34,2.33,4.67,4.66,7,6.99.19.19.35.39.44.64v.61c-.15.35-.41.6-.76.76h-.61Zm-6.24-15.65c.01-4.44-3.58-8.07-8.02-8.09-4.44-.02-8.09,3.59-8.11,8.03-.02,4.46,3.59,8.08,8.06,8.1,4.43.02,8.09-3.61,8.08-8.05Z"/></g></svg>