<?xml version="1.0" encoding="UTF-8"?><svg id="Capa_2" xmlns="http://www.w3.org/2000/svg" viewBox="0 0 27.52 27.52"><defs><style>.cls-1{fill:none;stroke:#e1e1e1;stroke-linecap:round;stroke-linejoin:round;stroke-width:.9px;}</style></defs><g id="Capa_2-2"><path class="cls-1" d="m9.48,22.91h0c-2.04-.03-4.06-.58-5.1-.91-.49-.15-1-.21-1.5-.17l-2.43.22"/><path class="cls-1" d="m6.03,16.33c1.21-.54,2.66-1.54,3.45-2.73.25-.38.44-.77.53-1.18.48-2.16,1.15-3.87,2.1-.61.96,3.26,3.74,2.35,3.74,2.35,1.85-.67-.48-4.98-1.69-6.94-.39-.64-1.08-1.05-1.83-1.06-1.04,0-1.99.16-2.85.43-3.06.94-5.03,3.23-6.09,4.84-.66,1-1.76,1.61-2.94,1.68"/><path class="cls-1" d="m25.57,11.03h-2.6c-.83,0-1.5-.67-1.5-1.5h0c0-.83.67-1.5,1.5-1.5h2.6c.83,0,1.5.67,1.5,1.5h0c0,.83-.67,1.5-1.5,1.5Z"/><path class="cls-1" d="m22.05,11.03h3.52c.83,0,1.5.67,1.5,1.5h0c0,.83-.67,1.5-1.5,1.5h-3.52c-.83,0-1.5-.67-1.5-1.5h0c0-.83.67-1.5,1.5-1.5Z"/><path class="cls-1" d="m25.57,17.05h-3.52c-.83,0-1.5-.67-1.5-1.5h0c0-.83.67-1.5,1.5-1.5h3.52c.83,0,1.5.67,1.5,1.5h0c0,.83-.67,1.5-1.5,1.5Z"/><path class="cls-1" d="m22.97,17.05h2.6c.83,0,1.5.67,1.5,1.5h0c0,.83-.67,1.5-1.5,1.5h-2.6c-.83,0-1.5-.67-1.5-1.5h0c0-.83.67-1.5,1.5-1.5Z"/><path class="cls-1" d="m24.68,8.03V2.51c0-1.13-.92-2.06-2.06-2.06h-11.08c-1.14,0-2.06.92-2.06,2.06v4.07"/><path class="cls-1" d="m9.48,13.59v11.43c0,1.13.92,2.06,2.06,2.06h11.08c1.14,0,2.06-.92,2.06-2.06v-4.96"/><line class="cls-1" x1="24.68" y1="4.03" x2="9.48" y2="4.03"/><line class="cls-1" x1="24.68" y1="23.45" x2="9.48" y2="23.45"/><line class="cls-1" x1="15.79" y1="25.26" x2="18.37" y2="25.26"/></g></svg>