<?xml version="1.0" encoding="UTF-8"?><svg id="Capa_2" xmlns="http://www.w3.org/2000/svg" viewBox="0 0 25.28 25.29"><defs><style>.cls-1{fill:#e1e1e1;stroke-width:0px;}</style></defs><g id="Capa_2-2"><path class="cls-1" d="m25.28,22.2c-.07.19-.19.34-.34.48-.75.75-1.5,1.5-2.25,2.25-.48.48-.95.48-1.44,0-1.56-1.56-3.12-3.12-4.67-4.67q-.22-.22-.38.06c-.59,1.03-1.18,2.05-1.77,3.08-.17.29-.36.55-.72.61-.37.06-.72-.09-.89-.42-.11-.21-.2-.43-.28-.66-2.02-5.05-4.03-10.1-6.05-15.16-.03-.08-.07-.17-.1-.25-.12-.35-.09-.69.18-.96.27-.27.6-.31.96-.19.19.07.38.15.57.23,5.05,2.01,10.11,4.03,15.16,6.04.05.02.09.04.14.06.37.14.62.39.64.79.02.4-.19.68-.53.87-1.06.61-2.12,1.22-3.18,1.84q-.27.15-.05.37c1.55,1.55,3.09,3.09,4.64,4.64.15.15.29.31.38.51v.49Zm-11.59-1.06c.06-.09.09-.13.11-.17.48-.83.99-1.65,1.43-2.5.48-.92,1.2-.87,1.8-.25,1.56,1.61,3.17,3.18,4.75,4.77.15.16.24.16.39,0,.26-.29.53-.56.82-.82.17-.15.17-.24,0-.41-1.59-1.58-3.17-3.16-4.75-4.74-.08-.08-.16-.16-.24-.25-.41-.49-.32-1.07.23-1.4.3-.18.61-.36.92-.53.65-.38,1.31-.76,2.01-1.16-4.15-1.66-8.26-3.29-12.36-4.93-.01.02-.03.04-.04.06,1.63,4.1,3.27,8.19,4.92,12.34Z"/><path class="cls-1" d="m8.65,0c.45.22.62.59.6,1.09-.02.77,0,1.54,0,2.32,0,.56-.35.95-.85.96-.49,0-.88-.33-.89-.82-.02-.91-.01-1.82,0-2.73,0-.4.25-.64.6-.8h.54Z"/><path class="cls-1" d="m10.71,4.59c0-.2.06-.38.19-.52.65-.7,1.31-1.39,2.02-2.01.51-.45,1.28-.13,1.39.54.04.23,0,.46-.16.62-.66.72-1.35,1.41-2.07,2.07-.26.23-.59.23-.9.07-.31-.16-.46-.43-.47-.78Z"/><path class="cls-1" d="m1.87,13.43c0-.26.1-.47.27-.64.61-.61,1.21-1.23,1.83-1.83.39-.37.91-.37,1.26-.02.35.36.34.87-.03,1.26-.6.62-1.21,1.22-1.83,1.83-.27.27-.61.36-.97.19-.34-.15-.51-.42-.52-.79Z"/><path class="cls-1" d="m2.2,7.48c.42,0,.84,0,1.26,0,.54,0,.91.35.92.84,0,.51-.35.89-.9.9-.72.01-1.44,0-2.17,0-.2,0-.41.02-.61-.03-.45-.1-.73-.48-.69-.94.03-.43.39-.77.84-.78.45-.01.9,0,1.35,0,0,0,0,0,0,0Z"/><path class="cls-1" d="m2.27,3.2c0-.44.16-.72.49-.87.33-.15.67-.13.94.13.66.64,1.31,1.29,1.95,1.95.33.34.3.85-.03,1.18-.33.33-.86.36-1.2.03-.66-.63-1.29-1.29-1.94-1.93-.15-.15-.22-.34-.22-.48Z"/></g></svg>