<?xml version="1.0" encoding="UTF-8"?><svg id="Capa_2" xmlns="http://www.w3.org/2000/svg" viewBox="0 0 24.96 27.8"><defs><style>.cls-1{fill:#e1e1e1;stroke-width:0px;}</style></defs><g id="Capa_2-2"><path class="cls-1" d="m8.03,27.8c-.66-.14-1.29-.35-1.84-.74-.42-.3-.78-.64-1.07-1.07-.12-.19-.27-.31-.49-.4-1.67-.68-2.72-2.26-2.69-4.05,0-.31-.07-.5-.34-.69C0,19.74-.46,17.54.52,15.86c.1-.17.13-.3.02-.49-.86-1.51-.69-3.19.46-4.5.09-.11.12-.2.09-.34-.54-2.08.76-4.09,2.7-4.63.18-.05.23-.11.18-.3-.36-1.47.18-2.63,1.51-3.39.43-.25.81-.58,1.23-.84C7.69.74,8.73.24,9.89.05c.95-.15,1.8.02,2.47.76.07.08.13.12.22.02.85-.96,1.92-.96,3.04-.67,1.19.31,2.26.87,3.23,1.6.44.33.96.55,1.35.94.8.79,1.07,1.74.79,2.83-.05.21-.03.3.19.37,2.04.62,3.14,2.52,2.68,4.59-.04.16,0,.27.1.39,1.11,1.24,1.29,2.98.47,4.43-.11.2-.12.34,0,.54,1,1.71.49,3.93-1.15,5.04-.21.14-.29.28-.27.53.12,1.81-1.06,3.55-2.79,4.2-.11.04-.21.1-.28.2-.7,1.07-1.68,1.72-2.94,1.94-.03,0-.05.02-.08.03h-1.25s-.03-.02-.05-.02c-1.32-.26-2.35-.94-3.04-2.11-.13-.22-.19-.06-.25.05-.3.5-.69.93-1.16,1.28-.57.42-1.22.65-1.9.81h-1.25ZM17.48,2.01c-.23-.13-.42-.25-.62-.35-.8-.39-1.62-.72-2.54-.7-.71.02-1.33.61-1.34,1.32-.02,1.23,0,2.46-.01,3.69,0,.18.05.23.22.12.34-.21.71-.32,1.1-.33.33-.01.56.17.58.44.02.27-.19.47-.52.51-.29.03-.57.11-.81.29-.45.33-.58.79-.58,1.33,0,3.89,0,7.78,0,11.66,0,1.23-.01,2.46.01,3.68.03,1.42,1.07,2.7,2.45,3.07,1.43.38,2.95-.21,3.7-1.44.17-.29.4-.46.71-.58.92-.32,1.57-.95,1.95-1.84.25-.59.33-1.2.23-1.83-.06-.39.01-.53.36-.73.07-.04.14-.08.21-.12,1.24-.73,1.75-2.35,1.15-3.65-.08-.18-.16-.21-.32-.08-.23.19-.5.33-.77.45-.45.2-.93.3-1.42.33-.33.02-.56-.17-.58-.44-.02-.28.14-.46.47-.52.17-.03.34-.02.51-.06,1.11-.24,1.88-.89,2.21-1.97.34-1.11.09-2.12-.75-2.93-.27-.26-.35-.51-.22-.87.14-.38.19-.77.15-1.17-.09-.82-.48-1.48-1.12-2-1.12-.92-2.97-.74-3.89.37-.46.55-.7,1.17-.74,1.88-.02.3-.21.5-.46.5-.27,0-.47-.21-.48-.52,0-.07,0-.14,0-.22.12-1.69,1.37-3.13,3.04-3.49.67-.14.66-.14.78-.82.03-.19.02-.38-.02-.56-.16-.78-.62-1.29-1.39-1.51-.75-.21-1.53.06-1.99.65-.1.14-.18.29-.29.43-.16.2-.4.25-.6.13-.21-.12-.29-.35-.2-.59.05-.12.11-.23.18-.33.39-.6.94-.98,1.65-1.23Zm-10,0c.36.14.67.28.95.48.38.28.68.62.87,1.05.11.25.03.49-.18.61-.22.13-.46.07-.62-.14-.06-.07-.1-.15-.15-.23-.51-.81-1.52-1.12-2.4-.74-.85.37-1.32,1.34-1.08,2.25.11.43.15.46.59.53,1.73.26,3.17,1.92,3.18,3.65,0,.36-.16.58-.45.6-.27.02-.48-.19-.5-.55-.06-.87-.41-1.6-1.09-2.16-.95-.78-2.32-.86-3.36-.18-1.07.7-1.57,2.02-1.18,3.19.14.44.07.72-.26,1.05-1.2,1.18-1.07,3.16.23,4.23.52.42,1.11.62,1.77.66.36.02.54.24.51.54-.03.27-.27.44-.6.42-.67-.04-1.29-.23-1.88-.57-.17-.1-.31-.4-.53-.25-.16.11-.18.38-.25.59,0,0,0,.02,0,.03-.29,1.32.26,2.55,1.44,3.22.42.24.5.36.44.76-.23,1.7.64,3.14,2.26,3.72.25.09.43.24.57.46.78,1.25,2.06,1.84,3.5,1.57,1.25-.24,2.12-.99,2.53-2.2.41-1.19.18-2.3-.63-3.27-.44-.53-1.02-.85-1.67-1.07-.27-.09-.39-.34-.32-.58.08-.27.33-.4.63-.32.35.09.68.24,1,.42.43.25.79.58,1.18.98v-.35c0-2.38,0-4.76,0-7.13,0-1.08,0-2.17,0-3.25,0-.58-.31-.98-.81-1.25-.2-.1-.42-.11-.63-.15-.31-.07-.48-.26-.45-.51.03-.27.28-.46.59-.43.39.04.77.13,1.1.34.18.12.21.05.21-.12,0-1.85,0-3.71-.01-5.56,0-.78-.64-1.38-1.42-1.37-1.12,0-2.09.49-3.08,1.04Z"/><path class="cls-1" d="m20.01,15.34c-1.18-.03-2.33-.94-2.61-2.09-.06-.24-.15-.33-.4-.38-.7-.12-1.31-.45-1.83-.93-.3-.28-.36-.58-.15-.8.22-.22.47-.2.78.08.95.85,2.22,1.02,3.32.41.87-.49,1.4-1.23,1.49-2.25,0-.11.02-.22.04-.32.05-.26.23-.42.46-.42.23,0,.44.18.48.43.04.25,0,.49-.06.73-.35,1.61-1.33,2.63-2.92,3.05-.33.09-.35.1-.2.41.32.67.86,1.05,1.61,1.13.12.01.24.02.34.07.21.11.3.28.26.52-.05.26-.25.38-.61.37Z"/><path class="cls-1" d="m14.9,23.27c.12-1.39.78-2.43,1.99-3.13.42-.24.4-.23.37-.72-.07-1.25-1.14-2.42-2.44-2.6-.12-.02-.25-.02-.38-.03-.33-.03-.53-.24-.51-.52.02-.27.22-.43.55-.43,1.78-.02,3.46,1.44,3.71,3.22,0,.05.01.11.02.16q.06.42.49.44c.27.02.46.18.48.43.03.26-.12.46-.41.51-.21.04-.43.04-.64.09-1.31.29-2.19,1.32-2.28,2.65,0,.09-.02.18-.04.27-.07.25-.26.38-.5.35-.23-.02-.4-.21-.42-.46,0-.08,0-.16.01-.24Z"/><path class="cls-1" d="m5.86,15.83c-.34,0-.55-.17-.56-.45-.01-.29.17-.47.52-.5.77-.07,1.35-.43,1.69-1.14.15-.31.14-.33-.2-.4-1.71-.4-3-1.97-2.98-3.64,0-.22.06-.41.27-.52.33-.16.66.07.68.47.04.7.27,1.31.73,1.85,1,1.16,2.85,1.3,4,.3.09-.08.17-.16.27-.22.23-.15.47-.12.63.07.16.18.16.42,0,.62-.2.24-.45.42-.71.58-.41.27-.85.44-1.33.52-.22.04-.29.14-.34.34-.31,1.2-1.46,2.11-2.67,2.13Z"/><path class="cls-1" d="m4.99,20.63c.25.08.31-.05.31-.29.05-1.73,1.61-3.36,3.34-3.51.19-.02.37-.07.56-.01.24.07.37.22.37.47,0,.23-.13.4-.36.44-.24.05-.48.05-.72.1-1.32.28-2.27,1.47-2.25,2.82,0,.2.08.31.25.4,1.3.68,1.99,1.76,2.13,3.21,0,.09.01.18,0,.27-.04.25-.25.43-.49.42-.24,0-.41-.17-.45-.43-.03-.21-.03-.43-.08-.64-.26-1.22-1.29-2.12-2.54-2.25-.09,0-.18-.02-.27-.04-.31-.04-.48-.23-.47-.49,0-.27.22-.45.54-.46.04,0,.07,0,.12,0Z"/></g></svg>