<?xml version="1.0" encoding="UTF-8"?><svg id="Capa_2" xmlns="http://www.w3.org/2000/svg" xmlns:xlink="http://www.w3.org/1999/xlink" viewBox="0 0 141.69 134.09"><defs><style>.cls-1{fill:url(#Degradado_sin_nombre_3);}.cls-1,.cls-2,.cls-3,.cls-4,.cls-5,.cls-6,.cls-7,.cls-8,.cls-9,.cls-10,.cls-11,.cls-12,.cls-13,.cls-14,.cls-15,.cls-16,.cls-17,.cls-18,.cls-19,.cls-20,.cls-21,.cls-22,.cls-23,.cls-24,.cls-25{stroke-width:0px;}.cls-1,.cls-7,.cls-10,.cls-18,.cls-20{isolation:isolate;}.cls-1,.cls-7,.cls-20{opacity:.5;}.cls-2{fill:url(#Degradado_sin_nombre_14);}.cls-3{fill:url(#Degradado_sin_nombre_13);}.cls-4{fill:url(#Degradado_sin_nombre_19);}.cls-5{fill:url(#Degradado_sin_nombre_14-2);}.cls-6{fill:url(#Degradado_sin_nombre_2-2);}.cls-7{fill:url(#Degradado_sin_nombre_8);}.cls-8,.cls-26{fill:none;}.cls-9{fill:url(#Degradado_sin_nombre_19-2);}.cls-10{fill:url(#Degradado_sin_nombre_11);}.cls-10,.cls-18{opacity:.75;}.cls-11{fill:#fff;}.cls-12{fill:url(#Degradado_sin_nombre_4);}.cls-13{fill:url(#Degradado_sin_nombre_16);}.cls-14{fill:url(#Degradado_sin_nombre_7);}.cls-15{fill:url(#Degradado_sin_nombre_9);}.cls-27{clip-path:url(#clippath);}.cls-16{fill:url(#Degradado_sin_nombre_20);}.cls-17{fill:#865dff;}.cls-19{fill:#643800;}.cls-20{fill:url(#Degradado_sin_nombre_8-2);}.cls-21{fill:url(#Degradado_sin_nombre_2);}.cls-22{fill:url(#Degradado_sin_nombre_20-3);}.cls-26{stroke:#6f01b7;stroke-miterlimit:10;stroke-width:.88px;}.cls-23{fill:url(#Degradado_sin_nombre_20-2);}.cls-24{fill:url(#Degradado_sin_nombre_16-2);}.cls-25{fill:url(#Degradado_sin_nombre_13-2);}</style><clipPath id="clippath"><path class="cls-8" d="m.93,77.23c6.06,36.08,40.23,60.41,76.31,54.35,36.08-6.06,60.41-40.23,54.35-76.31C125.52,19.19,91.35-5.14,55.27.93,19.19,6.99-5.14,41.16.93,77.23"/></clipPath><radialGradient id="Degradado_sin_nombre_4" cx="-5096.61" cy="-648.83" fx="-5096.61" fy="-648.83" r="1.27" gradientTransform="translate(178509.55 -4354.34) rotate(5.84) scale(34.74 -34.74)" gradientUnits="userSpaceOnUse"><stop offset="0" stop-color="#ffe030"/><stop offset="1" stop-color="#ffb92e"/></radialGradient><radialGradient id="Degradado_sin_nombre_3" cx="-5056.67" cy="-661.12" fx="-5056.67" fy="-661.12" r="1.27" gradientTransform="translate(139402.05 -3860.17) rotate(5.84) scale(27.33 -27.33)" gradientUnits="userSpaceOnUse"><stop offset="0" stop-color="#ffea5f"/><stop offset="1" stop-color="#ffbc47" stop-opacity="0"/></radialGradient><linearGradient id="Degradado_sin_nombre_20" x1="-93.61" y1="-2226.25" x2="-93.61" y2="-2231.71" gradientTransform="translate(384.36 -2123.42) rotate(5.84) scale(1 -1)" gradientUnits="userSpaceOnUse"><stop offset="0" stop-color="#3c2200"/><stop offset="1" stop-color="#512d00"/></linearGradient><linearGradient id="Degradado_sin_nombre_2" x1="-109.38" y1="-2194.17" x2="-109.38" y2="-2190.32" gradientTransform="translate(384.36 -2123.42) rotate(5.84) scale(1 -1)" gradientUnits="userSpaceOnUse"><stop offset="0" stop-color="#3c2200"/><stop offset="1" stop-color="#7a4400"/></linearGradient><linearGradient id="Degradado_sin_nombre_2-2" x1="-77.85" y1="-2194.17" x2="-77.85" y2="-2190.32" xlink:href="#Degradado_sin_nombre_2"/><radialGradient id="Degradado_sin_nombre_8" cx="-97.93" cy="214.54" fx="-97.93" fy="214.54" r="36.92" gradientTransform="translate(180.92 -134.8) rotate(5.84)" gradientUnits="userSpaceOnUse"><stop offset="0" stop-color="#7a4400" stop-opacity=".5"/><stop offset=".58" stop-color="#894d00" stop-opacity=".21"/><stop offset=".99" stop-color="#975500" stop-opacity="0"/></radialGradient><linearGradient id="Degradado_sin_nombre_7" x1="-76.27" y1="-2238.42" x2="-76.27" y2="-2204.58" gradientTransform="translate(384.36 -2123.42) rotate(5.84) scale(1 -1)" gradientUnits="userSpaceOnUse"><stop offset="0" stop-color="#fff"/><stop offset="1" stop-color="#fff" stop-opacity="0"/></linearGradient><radialGradient id="Degradado_sin_nombre_8-2" cx="-61.62" cy="214.54" fx="-61.62" fy="214.54" r="36.92" xlink:href="#Degradado_sin_nombre_8"/><linearGradient id="Degradado_sin_nombre_9" x1="-93.66" y1="206.44" x2="-93.66" y2="231.81" gradientTransform="translate(180.92 -134.8) rotate(5.84)" gradientUnits="userSpaceOnUse"><stop offset="0" stop-color="#242424"/><stop offset="1" stop-color="#8ea5a8"/></linearGradient><linearGradient id="Degradado_sin_nombre_13" x1="-111.15" y1="-2206.47" x2="-111.15" y2="-2225.86" gradientTransform="translate(384.36 -2123.42) rotate(5.84) scale(1 -1)" gradientUnits="userSpaceOnUse"><stop offset="0" stop-color="#000"/><stop offset="1" stop-color="#8ea5a8"/></linearGradient><radialGradient id="Degradado_sin_nombre_11" cx="-3738.36" cy="-1361.68" fx="-3738.36" fy="-1361.68" r="1.27" gradientTransform="translate(13005.21 -1465.56) rotate(5.84) scale(3.4 -2.08)" gradientUnits="userSpaceOnUse"><stop offset=".02" stop-color="#8ea5a8" stop-opacity=".25"/><stop offset="1" stop-color="#8ea5a8" stop-opacity="0"/></radialGradient><linearGradient id="Degradado_sin_nombre_14" x1="-123.86" y1="-2197.04" x2="-128.35" y2="-2197.04" gradientTransform="translate(384.36 -2123.42) rotate(5.84) scale(1 -1)" gradientUnits="userSpaceOnUse"><stop offset="0" stop-color="#fff"/><stop offset="1" stop-color="#ffbf00"/></linearGradient><linearGradient id="Degradado_sin_nombre_13-2" x1="-76.19" y1="-2206.47" x2="-76.19" y2="-2225.86" xlink:href="#Degradado_sin_nombre_13"/><linearGradient id="Degradado_sin_nombre_14-2" x1="-63.46" y1="-2197.04" x2="-58.97" y2="-2197.04" xlink:href="#Degradado_sin_nombre_14"/><radialGradient id="Degradado_sin_nombre_16" cx="-5153.93" cy="-650.37" fx="-5153.93" fy="-650.37" r="1.27" gradientTransform="translate(293630.47 8033.87) rotate(5.84) scale(56.83 -33.79)" gradientUnits="userSpaceOnUse"><stop offset=".96" stop-color="#8ea5a8" stop-opacity="0"/><stop offset="1" stop-color="#8ea5a8"/></radialGradient><radialGradient id="Degradado_sin_nombre_16-2" cx="-5334.18" cy="-556.63" fx="-5334.18" fy="-556.63" r="1.27" gradientTransform="translate(-303370.81 -12043.88) rotate(-174.16) scale(56.83 -33.79)" xlink:href="#Degradado_sin_nombre_16"/><radialGradient id="Degradado_sin_nombre_19" cx="-4521.88" cy="1097.24" fx="-4521.88" fy="1097.24" r="1.27" gradientTransform="translate(500.97 18681.14) rotate(79.69) scale(4.07 -2.63)" gradientUnits="userSpaceOnUse"><stop offset="0" stop-color="#7a4400"/><stop offset="1" stop-color="#643800"/></radialGradient><linearGradient id="Degradado_sin_nombre_20-2" x1="-107.83" y1="-2201.1" x2="-107.83" y2="-2206.06" xlink:href="#Degradado_sin_nombre_20"/><radialGradient id="Degradado_sin_nombre_19-2" cx="-4521.46" cy="1099.46" fx="-4521.46" fy="1099.46" r="1.27" gradientTransform="translate(523.25 18683.42) rotate(79.69) scale(4.07 -2.63)" xlink:href="#Degradado_sin_nombre_19"/><linearGradient id="Degradado_sin_nombre_20-3" x1="-79.39" y1="-2201.1" x2="-79.39" y2="-2206.06" xlink:href="#Degradado_sin_nombre_20"/></defs><g id="Capa_2-2"><circle class="cls-11" cx="74.72" cy="67.12" r="66.96"/><path class="cls-17" d="m131.58,55.27c6.06,36.08-18.27,70.24-54.35,76.31S6.99,113.31.93,77.23C-5.14,41.16,19.19,6.99,55.27.93c36.08-6.06,70.24,18.27,76.31,54.35"/><g class="cls-27"><polyline class="cls-26" points="124.06 -1.92 111.71 -22.71 111.08 -22.6 106.21 1.08 105.91 1.13 93.56 -19.65 92.93 -19.55 88.05 4.14 87.42 4.24 75.07 -16.55 74.44 -16.44 69.56 7.24 69.26 7.29 56.91 -13.5 56.28 -13.39 51.41 10.3 51.02 10.36 38.67 -10.43 38.04 -10.32 33.16 13.36 32.86 13.41 20.51 -7.38 19.88 -7.27 15.01 16.41 14.37 16.52 2.02 -4.27 1.39 -4.16 -3.48 19.52 -3.78 19.57 -16.13 -1.22 -16.76 -1.11 -21.64 22.57"/><polyline class="cls-26" points="128.18 22.6 115.84 1.81 115.2 1.92 110.33 25.6 110.03 25.65 97.68 4.86 97.05 4.97 92.18 28.65 91.54 28.76 79.19 7.97 78.56 8.08 73.69 31.76 73.38 31.81 61.03 11.02 60.4 11.13 55.53 34.81 55.14 34.88 42.79 14.09 42.16 14.19 37.29 37.88 36.98 37.93 24.63 17.14 24 17.25 19.13 40.93 18.49 41.04 6.14 20.25 5.51 20.35 .64 44.04 .34 44.09 -12.01 23.3 -12.64 23.41 -17.52 47.09"/><polyline class="cls-26" points="132.3 47.11 119.96 26.33 119.32 26.43 114.45 50.12 114.15 50.17 101.8 29.38 101.17 29.48 96.3 53.17 95.66 53.27 83.31 32.48 82.68 32.59 77.81 56.28 77.5 56.33 65.16 35.54 64.52 35.64 59.65 59.33 59.26 59.39 46.91 38.6 46.28 38.71 41.41 62.39 41.1 62.44 28.76 41.66 28.12 41.76 23.25 65.45 22.61 65.55 10.27 44.76 9.63 44.87 4.76 68.55 4.46 68.6 -7.89 47.81 -8.52 47.92 -13.39 71.61"/><polyline class="cls-26" points="136.43 71.63 124.08 50.84 123.45 50.95 118.57 74.63 118.27 74.68 105.92 53.89 105.29 54 100.42 77.68 99.78 77.79 87.43 57 86.8 57.11 81.93 80.79 81.62 80.84 69.28 60.05 68.65 60.16 63.77 83.84 63.38 83.91 51.03 63.12 50.4 63.23 45.53 86.91 45.22 86.96 32.88 66.17 32.24 66.28 27.37 89.96 26.73 90.07 14.39 69.28 13.75 69.39 8.88 93.07 8.58 93.12 -3.77 72.33 -4.4 72.44 -9.27 96.12"/><polyline class="cls-26" points="140.55 96.15 128.2 75.36 127.57 75.46 122.69 99.15 122.39 99.2 110.04 78.41 109.41 78.51 104.54 102.2 103.9 102.31 91.55 81.52 90.92 81.62 86.05 105.31 85.75 105.36 73.4 84.57 72.77 84.67 67.89 108.36 67.5 108.42 55.15 87.64 54.52 87.74 49.65 111.43 49.34 111.48 37 90.69 36.37 90.79 31.49 114.48 30.85 114.58 18.51 93.79 17.88 93.9 13 117.59 12.7 117.64 .35 96.85 -.28 96.95 -5.15 120.64"/><polyline class="cls-26" points="144.67 120.66 132.32 99.87 131.69 99.98 126.81 123.66 126.51 123.71 114.16 102.92 113.53 103.03 108.66 126.71 108.02 126.82 95.67 106.03 95.04 106.14 90.17 129.82 89.87 129.87 77.52 109.08 76.89 109.19 72.01 132.87 71.62 132.94 59.27 112.15 58.64 112.26 53.77 135.94 53.47 135.99 41.12 115.2 40.49 115.31 35.61 138.99 34.98 139.1 22.63 118.31 22 118.42 17.12 142.1 16.82 142.15 4.47 121.36 3.84 121.47 -1.03 145.15"/></g><path class="cls-12" d="m62.53,102.64c20.1,2.06,38.06-12.57,40.11-32.67,2.06-20.1-12.57-38.06-32.67-40.11-20.1-2.06-38.06,12.57-40.11,32.67-2.06,20.1,12.57,38.06,32.67,40.11Z"/><path class="cls-1" d="m62.53,102.64c20.1,2.06,38.06-12.57,40.11-32.67,2.06-20.1-12.57-38.06-32.67-40.11-20.1-2.06-38.06,12.57-40.11,32.67-2.06,20.1,12.57,38.06,32.67,40.11Z"/><path class="cls-19" d="m81.01,80.82c-.29-.08-.62-.02-.84.17-4.29,3.26-10.52,4.62-15.06,4.16l-.77-.08-.77-.08c-4.55-.47-10.37-3.06-13.91-7.12-.21-.23-.49-.35-.79-.33-.33.04-.52.36-.39.65,2.75,6.12,8.55,10.32,15.26,11.01l.2.02.2.02c6.71.69,13.24-2.25,17.17-7.69.14-.26.02-.62-.29-.72Z"/><path class="cls-16" d="m81.01,80.82c-.29-.08-.62-.02-.84.17-4.29,3.26-10.52,4.62-15.06,4.16l-.77-.08-.77-.08c-4.55-.47-10.37-3.06-13.91-7.12-.21-.23-.49-.35-.79-.33-.33.04-.52.36-.39.65.02.07.06.12.1.17.34-.15.7-.3,1,.13,3.28,4.54,8.53,7.61,14.42,8.21l.2.02.2.02c5.94.61,11.72-1.35,15.86-5.2.38-.35.68-.14.96.1.03-.04.05-.06.08-.11.16-.24.04-.59-.27-.69Z"/><path class="cls-21" d="m60.18,46.58c.15-1.46-1.33-2.53-4.06-2.8-2.3-.23-7.5.52-11.44,4.64-.72.75.21,1.31.9.85,2.32-1.6,8.32-3.35,12.75-2.4,1.78.37,1.85-.29,1.85-.29Z"/><path class="cls-6" d="m76.19,48.22c.15-1.46,1.81-2.2,4.54-1.93,2.3.23,7.24,2.03,10.26,6.86.55.88-.47,1.24-1.05.65-1.95-2.04-7.47-4.97-12-4.93-1.82,0-1.75-.66-1.75-.66Z"/><path class="cls-7" d="m55.64,51.59c-3.99-1.67-12.91-2.56-18.4-2.5-1.49,0-2.58.08-3.39.14-.88,1.68-1.64,3.46-2.27,5.31.69.46,1.62,1.22,1.62,1.96,0,10.07,2.8,13.96,2.8,13.96,2.45,4.11,17.65,5.6,22.67,1.03,6.28-5.72,3.59-13.12,7.69-12.7l.19-1.89c-3.48-.36-5.3-2.98-10.9-5.3Zm-.68,18.73c-3.77,1.8-13.59,1.02-15.68-3.3-2.06-4.3-2.21-9.85-.77-13.36,1.44-3.51,6.83-2.5,11.43-1.7,7.09,1.25,11.93,4.42,11.38,8.27-.44,2.92-1.34,7.72-6.37,10.1Z"/><path class="cls-14" d="m85.02,55.56c4.67.13,10.15.26,10.85,3.98.7,3.73-.56,9.11-3.46,12.93-2.9,3.82-12.7,2.58-16.02.06-4.44-3.35-4.35-8.24-4.19-11.18.24-3.91,5.63-6.02,12.82-5.79Z"/><path class="cls-20" d="m101.41,56.13c-.76-.22-1.83-.51-3.29-.82-5.35-1.17-14.26-2.1-18.53-1.28-5.93,1.14-8.25,3.34-11.75,2.98l-.19,1.89c4.09.42-.04,7.14,4.96,14,3.99,5.49,19.17,7.11,22.41,3.58,0,0,3.53-3.25,5.57-13.1.15-.74,1.21-1.3,1.98-1.59-.24-1.93-.62-3.81-1.15-5.66Zm-9.02,16.31c-2.89,3.79-12.7,2.58-16.02.06-4.44-3.35-4.35-8.24-4.19-11.18.24-3.88,5.62-6,12.82-5.79,4.67.13,10.15.26,10.85,3.98.7,3.75-.54,9.14-3.46,12.93Z"/><path class="cls-15" d="m102.71,54.45s-1.11-.57-5.05-1.44c-5.35-1.17-14.26-2.1-18.53-1.28-5.93,1.14-8.25,3.34-11.75,2.98-3.5-.36-5.33-2.98-10.92-5.32-3.99-1.67-12.91-2.56-18.4-2.5-4,.05-5.23.38-5.23.38-.04.39-.09.84-.11,1.34,0,0,2.41.66,2.41.89-.01.11-2.45.09-2.45.09,0,.41.03.85.07,1.32l.91.55c.72.42,1.14,1.2,1.13,2.02,0,10.07,2.75,14.41,2.75,14.41,2.45,4.11,15.69,6.78,20.71,2.21,6.28-5.72,4.59-11.64,8.69-11.22,4.09.42,1.24,5.89,6.23,12.75,3.99,5.49,17.49,5.56,20.73,2.03,0,0,3.57-3.7,5.62-13.56.17-.81.75-1.49,1.51-1.75l1-.36c.14-.45.25-.87.34-1.28,0,0-2.23-.46-2.19-.57.05-.23,2.38-.4,2.38-.4.1-.5.14-.95.16-1.32Zm-47.58,14.28c-3.77,1.8-13.59,1.02-15.68-3.3-2.06-4.3-2.21-9.85-.77-13.36,1.44-3.51,6.83-2.5,11.43-1.7,7.09,1.25,11.93,4.42,11.38,8.27-.44,2.92-1.34,7.72-6.37,10.1Zm37.42,2.13c-2.89,3.79-12.7,2.58-16.02.06-4.44-3.35-4.35-8.24-4.19-11.18.24-3.88,5.62-6,12.82-5.79,4.67.13,10.15.26,10.85,3.98.7,3.75-.54,9.14-3.46,12.93Z"/><path class="cls-3" d="m55.13,68.72c-3.77,1.8-13.59,1.02-15.68-3.3-1.74-3.63-2.11-8.12-1.32-11.53,0,.02-.03.02-.03.04-.77,3.69-.53,8.15,1.14,11.97,2.07,4.72,12.08,5.49,15.94,3.49,3.96-2.05,5.26-5.41,5.87-8.43-.65,2.74-2.1,5.94-5.92,7.76Z"/><path class="cls-10" d="m69.21,59.13c.19-1.18.58-2.33,1.17-3.35l.93-1.63c-1.31.44-2.53.71-3.92.56-1.39-.14-2.53-.65-3.72-1.35l.58,1.78c.37,1.14.52,2.33.47,3.52l-.04,1.1c.53-.66,1.21-1,2.3-.89,1.09.11,1.69.59,2.07,1.34l.18-1.08Z"/><path class="cls-18" d="m38.63,52.56c1.44-3.51,6.83-2.5,11.43-1.7,6.84,1.21,11.59,4.17,11.42,7.86v-.09c.56-3.85-4.28-7.01-11.37-8.27-4.6-.82-10-1.8-11.43,1.7-.46,1.15-.76,2.5-.89,3.95.15-1.27.43-2.44.84-3.45Z"/><path class="cls-2" d="m32.71,48.62c0,.3-.02.64,0,.99l3.62.37c.55.06,1.02-.33,1.08-.88l-4.69-.48Z"/><path class="cls-25" d="m76.53,70.91c3.33,2.52,13.11,3.75,16.02-.06,2.44-3.2,3.71-7.53,3.63-11.03,0,.02.02.03.02.05,0,3.77-1.13,8.09-3.54,11.5-2.98,4.2-12.94,2.93-16.31.19-3.46-2.81-4.06-6.37-4.04-9.45.1,2.81.85,6.25,4.22,8.8Z"/><path class="cls-18" d="m95.96,58.42c-.7-3.73-6.18-3.83-10.85-3.98-6.94-.2-12.2,1.74-12.78,5.38v-.09c.25-3.88,5.63-6,12.83-5.79,4.67.13,10.15.26,10.85,3.98.22,1.22.24,2.6.07,4.05.13-1.27.09-2.47-.12-3.55Z"/><path class="cls-5" d="m102.58,55.77c-.05.29-.11.63-.19.97l-3.62-.37c-.55-.06-.93-.53-.88-1.08l4.69.48Z"/><path class="cls-13" d="m64.33,55.16l-.58-1.78c-1.82-1.06-3.83-2.57-7.2-3.98-3.99-1.67-12.91-2.56-18.4-2.5-4,.05-5.23.38-5.23.38-.04.39-.09.84-.11,1.34,8.53.14,18.94-.5,30.43,6.28.3.19.71.28,1.12.3,0-.02-.02-.05-.02-.05Z"/><path class="cls-24" d="m70.47,55.79l.93-1.63c2-.67,4.27-1.75,7.86-2.44,4.24-.83,13.16.11,18.53,1.28,3.91.86,5.05,1.44,5.05,1.44-.02.39-.04.82-.11,1.32-8.39-1.59-18.45-4.32-31.07,0-.33.13-.75.13-1.16.07-.02,0-.02-.03-.02-.03Z"/><path class="cls-4" d="m52,65.9c1.93.2,3.75-2.01,4.04-4.94.3-2.93-1.03-5.46-2.96-5.66-1.93-.2-3.75,2.01-4.04,4.94-.3,2.93,1.03,5.46,2.96,5.66Z"/><path class="cls-23" d="m52.9,57.1c1.5.15,2.69,1.61,3.17,3.61.25-2.87-1.06-5.33-2.97-5.52-1.91-.2-3.69,1.94-4.03,4.8.88-1.86,2.31-3.05,3.84-2.89Z"/><path class="cls-9" d="m80.29,68.79c1.93.2,3.75-2.01,4.04-4.94.3-2.93-1.03-5.46-2.96-5.66s-3.75,2.01-4.04,4.94c-.3,2.93,1.03,5.46,2.96,5.66Z"/><path class="cls-22" d="m81.19,59.99c-1.5-.15-2.96,1.03-3.84,2.89.34-2.86,2.12-5,4.03-4.8,1.91.2,3.22,2.65,2.97,5.52-.48-2-1.65-3.45-3.17-3.61Z"/></g></svg>