<?xml version="1.0" encoding="UTF-8"?><svg id="Capa_2" xmlns="http://www.w3.org/2000/svg" viewBox="0 0 174.8 36.65"><defs><style>.cls-1{fill:none;stroke:#977eed;stroke-miterlimit:10;stroke-width:2.64px;}</style></defs><g id="Capa_2-2"><polyline class="cls-1" points="173.54 36.24 164.75 9.4 164 9.36 152.42 35.13 152.07 35.11 143.27 8.27 142.53 8.23 130.95 33.99 130.2 33.95 121.4 7.11 120.66 7.07 109.08 32.83 108.72 32.82 99.93 5.97 99.18 5.94 87.61 31.7 87.14 31.67 78.35 4.83 77.6 4.79 66.03 30.56 65.67 30.54 56.87 3.7 56.13 3.66 44.55 29.42 43.8 29.38 35 2.54 34.26 2.5 22.68 28.27 22.32 28.25 13.53 1.41 12.78 1.37 1.21 27.13"/></g></svg>